<mxfile host="Electron" modified="2024-03-19T13:45:44.574Z" agent="Mozilla/5.0 (Windows NT 10.0; Win64; x64) AppleWebKit/537.36 (KHTML, like Gecko) draw.io/23.1.5 Chrome/120.0.6099.109 Electron/28.1.0 Safari/537.36" etag="4QtoPfTXxLhdACL5le1n" version="23.1.5" type="device">
  <diagram name="Pagina-1" id="MOK8r_7nT9AqC8RDor5M">
    <mxGraphModel dx="947" dy="1115" grid="1" gridSize="10" guides="1" tooltips="1" connect="1" arrows="1" fold="1" page="1" pageScale="1" pageWidth="827" pageHeight="1169" math="0" shadow="0">
      <root>
        <mxCell id="0" />
        <mxCell id="1" parent="0" />
        <mxCell id="tS9Md701B_uKSfISq-Sp-19" value="ZooBazarWEB" style="swimlane;whiteSpace=wrap;html=1;" vertex="1" parent="1">
          <mxGeometry x="10" y="30" width="789" height="460" as="geometry" />
        </mxCell>
        <mxCell id="tS9Md701B_uKSfISq-Sp-14" value="Index" style="swimlane;whiteSpace=wrap;html=1;startSize=30;" vertex="1" collapsed="1" parent="tS9Md701B_uKSfISq-Sp-19">
          <mxGeometry x="50" y="30" width="70" height="30" as="geometry">
            <mxRectangle x="560" y="160" width="200" height="200" as="alternateBounds" />
          </mxGeometry>
        </mxCell>
        <mxCell id="tS9Md701B_uKSfISq-Sp-15" value="Privacy" style="swimlane;whiteSpace=wrap;html=1;" vertex="1" collapsed="1" parent="tS9Md701B_uKSfISq-Sp-19">
          <mxGeometry x="160" y="30" width="80" height="30" as="geometry">
            <mxRectangle x="190" y="340" width="200" height="200" as="alternateBounds" />
          </mxGeometry>
        </mxCell>
        <mxCell id="tS9Md701B_uKSfISq-Sp-16" value="Error" style="swimlane;whiteSpace=wrap;html=1;" vertex="1" collapsed="1" parent="tS9Md701B_uKSfISq-Sp-19">
          <mxGeometry x="270" y="30" width="70" height="30" as="geometry">
            <mxRectangle x="300" y="340" width="200" height="200" as="alternateBounds" />
          </mxGeometry>
        </mxCell>
        <mxCell id="tS9Md701B_uKSfISq-Sp-17" value="_viewimports" style="swimlane;whiteSpace=wrap;html=1;" vertex="1" collapsed="1" parent="tS9Md701B_uKSfISq-Sp-19">
          <mxGeometry x="360" y="30" width="120" height="30" as="geometry">
            <mxRectangle x="390" y="340" width="200" height="200" as="alternateBounds" />
          </mxGeometry>
        </mxCell>
        <mxCell id="tS9Md701B_uKSfISq-Sp-18" value="_viewStart" style="swimlane;whiteSpace=wrap;html=1;" vertex="1" collapsed="1" parent="tS9Md701B_uKSfISq-Sp-19">
          <mxGeometry x="500" y="30" width="100" height="30" as="geometry">
            <mxRectangle x="530" y="340" width="200" height="200" as="alternateBounds" />
          </mxGeometry>
        </mxCell>
        <mxCell id="tS9Md701B_uKSfISq-Sp-23" value="Pages" style="swimlane;whiteSpace=wrap;html=1;" vertex="1" parent="tS9Md701B_uKSfISq-Sp-19">
          <mxGeometry x="29" y="70" width="731" height="365" as="geometry" />
        </mxCell>
        <mxCell id="tS9Md701B_uKSfISq-Sp-13" value="sub-page" style="swimlane;whiteSpace=wrap;html=1;" vertex="1" parent="tS9Md701B_uKSfISq-Sp-23">
          <mxGeometry x="8" y="50" width="690" height="160" as="geometry" />
        </mxCell>
        <mxCell id="tS9Md701B_uKSfISq-Sp-1" value="TicketVender" style="swimlane;whiteSpace=wrap;html=1;" vertex="1" collapsed="1" parent="tS9Md701B_uKSfISq-Sp-13">
          <mxGeometry x="24" y="60" width="110" height="30" as="geometry">
            <mxRectangle x="90" y="160" width="200" height="200" as="alternateBounds" />
          </mxGeometry>
        </mxCell>
        <mxCell id="tS9Md701B_uKSfISq-Sp-2" value="Task" style="swimlane;whiteSpace=wrap;html=1;" vertex="1" collapsed="1" parent="tS9Md701B_uKSfISq-Sp-13">
          <mxGeometry x="24" y="115" width="70" height="30" as="geometry">
            <mxRectangle x="90" y="385" width="200" height="200" as="alternateBounds" />
          </mxGeometry>
        </mxCell>
        <mxCell id="tS9Md701B_uKSfISq-Sp-3" value="Reports" style="swimlane;whiteSpace=wrap;html=1;" vertex="1" collapsed="1" parent="tS9Md701B_uKSfISq-Sp-13">
          <mxGeometry x="154" y="60" width="90" height="30" as="geometry">
            <mxRectangle x="330" y="160" width="200" height="200" as="alternateBounds" />
          </mxGeometry>
        </mxCell>
        <mxCell id="tS9Md701B_uKSfISq-Sp-4" value="Login" style="swimlane;whiteSpace=wrap;html=1;" vertex="1" collapsed="1" parent="tS9Md701B_uKSfISq-Sp-13">
          <mxGeometry x="154" y="115" width="70" height="30" as="geometry">
            <mxRectangle x="330" y="385" width="200" height="200" as="alternateBounds" />
          </mxGeometry>
        </mxCell>
        <mxCell id="tS9Md701B_uKSfISq-Sp-5" value="Index" style="swimlane;whiteSpace=wrap;html=1;" vertex="1" collapsed="1" parent="tS9Md701B_uKSfISq-Sp-13">
          <mxGeometry x="264" y="60" width="70" height="30" as="geometry">
            <mxRectangle x="560" y="160" width="200" height="200" as="alternateBounds" />
          </mxGeometry>
        </mxCell>
        <mxCell id="tS9Md701B_uKSfISq-Sp-6" value="AnimalCare" style="swimlane;whiteSpace=wrap;html=1;" vertex="1" collapsed="1" parent="tS9Md701B_uKSfISq-Sp-13">
          <mxGeometry x="274" y="115" width="110" height="30" as="geometry">
            <mxRectangle x="560" y="385" width="200" height="200" as="alternateBounds" />
          </mxGeometry>
        </mxCell>
        <mxCell id="tS9Md701B_uKSfISq-Sp-7" value="Administration" style="swimlane;whiteSpace=wrap;html=1;" vertex="1" collapsed="1" parent="tS9Md701B_uKSfISq-Sp-13">
          <mxGeometry x="364" y="60" width="130" height="30" as="geometry">
            <mxRectangle x="780" y="160" width="200" height="200" as="alternateBounds" />
          </mxGeometry>
        </mxCell>
        <mxCell id="tS9Md701B_uKSfISq-Sp-9" value="employes&amp;nbsp;" style="swimlane;whiteSpace=wrap;html=1;" vertex="1" collapsed="1" parent="tS9Md701B_uKSfISq-Sp-13">
          <mxGeometry x="424" y="115" width="100" height="30" as="geometry">
            <mxRectangle x="490" y="385" width="200" height="200" as="alternateBounds" />
          </mxGeometry>
        </mxCell>
        <mxCell id="tS9Md701B_uKSfISq-Sp-10" value="Animal&amp;nbsp;" style="swimlane;whiteSpace=wrap;html=1;startSize=20;" vertex="1" collapsed="1" parent="tS9Md701B_uKSfISq-Sp-13">
          <mxGeometry x="544" y="60" width="110" height="30" as="geometry">
            <mxRectangle x="380" y="110" width="200" height="150" as="alternateBounds" />
          </mxGeometry>
        </mxCell>
        <mxCell id="tS9Md701B_uKSfISq-Sp-20" value="Shared" style="swimlane;whiteSpace=wrap;html=1;" vertex="1" parent="tS9Md701B_uKSfISq-Sp-23">
          <mxGeometry x="8" y="230" width="240" height="120" as="geometry" />
        </mxCell>
        <mxCell id="tS9Md701B_uKSfISq-Sp-21" value="_Layout" style="swimlane;whiteSpace=wrap;html=1;startSize=20;" vertex="1" collapsed="1" parent="tS9Md701B_uKSfISq-Sp-20">
          <mxGeometry x="14" y="40" width="90" height="30" as="geometry">
            <mxRectangle x="100" y="590" width="190" height="95" as="alternateBounds" />
          </mxGeometry>
        </mxCell>
        <mxCell id="tS9Md701B_uKSfISq-Sp-22" value="_ValidationScriptsPartial" style="swimlane;whiteSpace=wrap;html=1;" vertex="1" collapsed="1" parent="tS9Md701B_uKSfISq-Sp-20">
          <mxGeometry x="14" y="80" width="180" height="30" as="geometry">
            <mxRectangle x="240" y="530" width="200" height="200" as="alternateBounds" />
          </mxGeometry>
        </mxCell>
      </root>
    </mxGraphModel>
  </diagram>
</mxfile>
